<?xml version="1.0" ?><!DOCTYPE svg  PUBLIC '-//W3C//DTD SVG 1.1//EN'  'http://www.w3.org/Graphics/SVG/1.1/DTD/svg11.dtd'><svg enable-background="new 0 0 64 64" height="64px" id="Layer_1" version="1.1" viewBox="0 0 64 64" width="64px" xml:space="preserve" xmlns="http://www.w3.org/2000/svg" xmlns:xlink="http://www.w3.org/1999/xlink"><g><path d="M57.809,0.117H6.19c-2.885,0-5.224,2.359-5.224,5.269V25.17v9.467v5.268H6.19h51.618h5.225v-5.268V25.17   V5.385C63.033,2.476,60.694,0.117,57.809,0.117z M59.727,24.271v7.741v4.307h-4.647H9.185H4.541v-4.307v-7.741V8.096   c0-2.379,2.079-4.307,4.644-4.307h45.895c2.568,0,4.647,1.928,4.647,4.307V24.271z" fill="#241F20"/><path d="M54.354,15.559c0,0.955-0.773,1.728-1.729,1.728H11.374c-0.955,0-1.728-0.773-1.728-1.728v-1.512   c0-0.954,0.772-1.728,1.728-1.728h41.252c0.955,0,1.729,0.773,1.729,1.728V15.559z" fill="#241F20"/><path d="M54.354,25.926c0,0.954-0.773,1.728-1.729,1.728H11.374c-0.955,0-1.728-0.774-1.728-1.728v-1.512   c0-0.954,0.772-1.728,1.728-1.728h41.252c0.955,0,1.729,0.774,1.729,1.728V25.926z" fill="#241F20"/><g><path d="M20.487,58.911h-2.043v-1.728v-0.253v-8.252c0-1.624-1.296-1.781-1.725-1.789h-0.443    c0,0-1.863-0.073-1.863,1.952v8.089v0.253v1.728h-1.89c0,0-1.062,0.074-0.002,1.2l3.22,3.414l0,0c0,0,0.003,0.004,0.003,0.006    l0.061,0.063c0.173,0.174,0.699,0.586,1.354-0.069l3.335-3.345C21.681,58.984,20.487,58.911,20.487,58.911z" fill="#241F20"/><path d="M35.795,58.911h-1.819v-1.728v-0.253v-8.036c0-1.607-0.936-1.947-1.53-2.005h-0.8    c-0.566,0.038-1.7,0.312-1.7,1.871v8.17v0.253v1.728h-1.961c-0.28,0.005-1.091,0.12,0.084,1.368l2.787,2.956l0,0l0.002,0.004    l0.23,0.243c0.313,0.271,0.931,0.571,1.745-0.247c0.002,0,0.002,0,0.004-0.001l2.96-2.971    C37.057,58.998,35.795,58.911,35.795,58.911z" fill="#241F20"/><path d="M51.427,58.911h-1.81v-1.728v-0.253v-8.225c0-1.479-0.985-1.772-1.576-1.816h-0.705    c-0.543,0.028-1.75,0.274-1.75,1.952v8.089v0.253v1.728h-1.88c0,0-1.174,0.12,0,1.363c0,0,0,0,0,0.002l3.033,3.216l0,0    c0,0,0.008,0.009,0.01,0.013l0.028,0.028c0.148,0.152,0.74,0.664,1.442-0.041c0.003-0.001,0.003-0.001,0.004-0.001l3.204-3.217    C52.602,59.094,51.427,58.911,51.427,58.911z" fill="#241F20"/></g></g></svg>